<svg width="25" height="15" viewBox="0 0 25 15" fill="none" xmlns="http://www.w3.org/2000/svg">
<path d="M23.9645 6.58884C24.5168 6.58884 24.9645 7.03655 24.9645 7.58884C24.9645 8.14112 24.5168 8.58884 23.9645 8.58884V6.58884ZM0.449174 8.29594C0.0586494 7.90542 0.0586494 7.27225 0.449174 6.88173L6.81313 0.517769C7.20366 0.127245 7.83682 0.127245 8.22735 0.517769C8.61787 0.908293 8.61787 1.54146 8.22735 1.93198L2.57049 7.58884L8.22735 13.2457C8.61787 13.6362 8.61787 14.2694 8.22735 14.6599C7.83682 15.0504 7.20366 15.0504 6.81313 14.6599L0.449174 8.29594ZM23.9645 8.58884H1.15628V6.58884H23.9645V8.58884Z" fill="#4F4F4F"/>
</svg>
