<svg width="21" height="20" viewBox="0 0 21 20" fill="none" xmlns="http://www.w3.org/2000/svg">
<path fill-rule="evenodd" clip-rule="evenodd" d="M6.02352 0.561241C5.1086 0.561241 4.31032 1.1821 4.08508 2.06886L0.20702 17.3364C-0.114073 18.6005 0.841209 19.8288 2.14546 19.8288H14.7421C15.657 19.8288 16.4553 19.2079 16.6805 18.3211L20.5586 3.05362C20.8797 1.78951 19.9244 0.561241 18.6201 0.561241H6.02352ZM4.65837 2.80585C4.68037 2.82785 4.70737 2.83885 4.73937 2.83885H5.44437C5.47837 2.83885 5.50637 2.82785 5.52837 2.80585C5.55037 2.78385 5.56137 2.75685 5.56137 2.72485C5.56137 2.69085 5.55037 2.66285 5.52837 2.64085C5.50637 2.61885 5.47837 2.60785 5.44437 2.60785H4.73937C4.70737 2.60785 4.68037 2.61885 4.65837 2.64085C4.63637 2.66285 4.62537 2.69085 4.62537 2.72485C4.62537 2.75685 4.63637 2.78385 4.65837 2.80585ZM5.83024 2.80585C5.85224 2.82785 5.87924 2.83885 5.91124 2.83885H6.61624C6.65024 2.83885 6.67824 2.82785 6.70024 2.80585C6.72224 2.78385 6.73324 2.75685 6.73324 2.72485C6.73324 2.69085 6.72224 2.66285 6.70024 2.64085C6.67824 2.61885 6.65024 2.60785 6.61624 2.60785H5.91124C5.87924 2.60785 5.85224 2.61885 5.83024 2.64085C5.80824 2.66285 5.79724 2.69085 5.79724 2.72485C5.79724 2.75685 5.80824 2.78385 5.83024 2.80585ZM7.88102 2.80585C7.90302 2.82785 7.93002 2.83885 7.96202 2.83885H8.66702C8.70102 2.83885 8.72902 2.82785 8.75102 2.80585C8.77302 2.78385 8.78402 2.75685 8.78402 2.72485C8.78402 2.69085 8.77302 2.66285 8.75102 2.64085C8.72902 2.61885 8.70102 2.60785 8.66702 2.60785H7.96202C7.93002 2.60785 7.90302 2.61885 7.88102 2.64085C7.85902 2.66285 7.84802 2.69085 7.84802 2.72485C7.84802 2.75685 7.85902 2.78385 7.88102 2.80585ZM9.1069 3.54085C9.1409 3.57485 9.1819 3.59185 9.2299 3.59185C9.2799 3.59185 9.3209 3.57485 9.3529 3.54085C9.3869 3.50485 9.4039 3.46385 9.4039 3.41785C9.4039 3.36985 9.3869 3.32885 9.3529 3.29485C9.3189 3.25885 9.2779 3.24085 9.2299 3.24085C9.1839 3.24085 9.1429 3.25785 9.1069 3.29185C9.0729 3.32585 9.0559 3.36785 9.0559 3.41785C9.0559 3.46585 9.0729 3.50685 9.1069 3.54085ZM9.70036 2.80585C9.72236 2.82785 9.74936 2.83885 9.78136 2.83885H10.4864C10.5204 2.83885 10.5484 2.82785 10.5704 2.80585C10.5924 2.78385 10.6034 2.75685 10.6034 2.72485C10.6034 2.69085 10.5924 2.66285 10.5704 2.64085C10.5484 2.61885 10.5204 2.60785 10.4864 2.60785H9.78136C9.74936 2.60785 9.72236 2.61885 9.70036 2.64085C9.67836 2.66285 9.66736 2.69085 9.66736 2.72485C9.66736 2.75685 9.67836 2.78385 9.70036 2.80585ZM10.8722 2.80585C10.8942 2.82785 10.9212 2.83885 10.9532 2.83885H11.6582C11.6922 2.83885 11.7202 2.82785 11.7422 2.80585C11.7642 2.78385 11.7752 2.75685 11.7752 2.72485C11.7752 2.69085 11.7642 2.66285 11.7422 2.64085C11.7202 2.61885 11.6922 2.60785 11.6582 2.60785H10.9532C10.9212 2.60785 10.8942 2.61885 10.8722 2.64085C10.8502 2.66285 10.8392 2.69085 10.8392 2.72485C10.8392 2.75685 10.8502 2.78385 10.8722 2.80585ZM12.908 3.72685C12.932 3.76085 12.965 3.77785 13.007 3.77785C13.029 3.77785 13.05 3.77285 13.07 3.76285C13.09 3.75285 13.105 3.73585 13.115 3.71185L14.057 1.35985C14.071 1.31985 14.068 1.28285 14.048 1.24885C14.028 1.21285 13.996 1.19485 13.952 1.19485C13.928 1.19485 13.906 1.20085 13.886 1.21285C13.866 1.22485 13.852 1.24185 13.844 1.26385L12.902 3.61285C12.884 3.65685 12.886 3.69485 12.908 3.72685ZM15.2622 3.54085C15.2962 3.57485 15.3372 3.59185 15.3852 3.59185C15.4352 3.59185 15.4762 3.57485 15.5082 3.54085C15.5422 3.50485 15.5592 3.46385 15.5592 3.41785C15.5592 3.36985 15.5422 3.32885 15.5082 3.29485C15.4742 3.25885 15.4332 3.24085 15.3852 3.24085C15.3392 3.24085 15.2982 3.25785 15.2622 3.29185C15.2282 3.32585 15.2112 3.36785 15.2112 3.41785C15.2112 3.46585 15.2282 3.50685 15.2622 3.54085ZM15.8556 2.80585C15.8776 2.82785 15.9046 2.83885 15.9366 2.83885H16.6416C16.6756 2.83885 16.7036 2.82785 16.7256 2.80585C16.7476 2.78385 16.7586 2.75685 16.7586 2.72485C16.7586 2.69085 16.7476 2.66285 16.7256 2.64085C16.7036 2.61885 16.6756 2.60785 16.6416 2.60785H15.9366C15.9046 2.60785 15.8776 2.61885 15.8556 2.64085C15.8336 2.66285 15.8226 2.69085 15.8226 2.72485C15.8226 2.75685 15.8336 2.78385 15.8556 2.80585ZM17.0275 2.80585C17.0495 2.82785 17.0765 2.83885 17.1085 2.83885H17.8135C17.8475 2.83885 17.8755 2.82785 17.8975 2.80585C17.9195 2.78385 17.9305 2.75685 17.9305 2.72485C17.9305 2.69085 17.9195 2.66285 17.8975 2.64085C17.8755 2.61885 17.8475 2.60785 17.8135 2.60785H17.1085C17.0765 2.60785 17.0495 2.61885 17.0275 2.64085C17.0055 2.66285 16.9945 2.69085 16.9945 2.72485C16.9945 2.75685 17.0055 2.78385 17.0275 2.80585ZM18.2534 3.54085C18.2874 3.57485 18.3284 3.59185 18.3764 3.59185C18.4264 3.59185 18.4674 3.57485 18.4994 3.54085C18.5334 3.50485 18.5504 3.46385 18.5504 3.41785C18.5504 3.36985 18.5334 3.32885 18.4994 3.29485C18.4654 3.25885 18.4244 3.24085 18.3764 3.24085C18.3304 3.24085 18.2894 3.25785 18.2534 3.29185C18.2194 3.32585 18.2024 3.36785 18.2024 3.41785C18.2024 3.46585 18.2194 3.50685 18.2534 3.54085ZM4.22654 6.60663C4.17854 6.60663 4.13754 6.58963 4.10354 6.55563C4.06954 6.52163 4.05254 6.48063 4.05254 6.43263C4.05254 6.38263 4.06954 6.34063 4.10354 6.30663C4.13954 6.27263 4.18054 6.25563 4.22654 6.25563C4.27454 6.25563 4.31554 6.27363 4.34954 6.30963C4.38354 6.34363 4.40054 6.38463 4.40054 6.43263C4.40054 6.47863 4.38354 6.51963 4.34954 6.55563C4.31754 6.58963 4.27654 6.60663 4.22654 6.60663ZM5.65691 5.85363C5.62491 5.85363 5.59791 5.84263 5.57591 5.82063C5.55391 5.79863 5.54291 5.77163 5.54291 5.73963C5.54291 5.70563 5.55391 5.67763 5.57591 5.65563C5.59791 5.63363 5.62491 5.62263 5.65691 5.62263H6.36191C6.39591 5.62263 6.42391 5.63363 6.44591 5.65563C6.46791 5.67763 6.47891 5.70563 6.47891 5.73963C6.47891 5.77163 6.46791 5.79863 6.44591 5.82063C6.42391 5.84263 6.39591 5.85363 6.36191 5.85363H5.65691ZM6.92478 6.60663C6.87678 6.60663 6.83578 6.58963 6.80178 6.55563C6.76778 6.52163 6.75078 6.48063 6.75078 6.43263C6.75078 6.38263 6.76778 6.34063 6.80178 6.30663C6.83778 6.27263 6.87878 6.25563 6.92478 6.25563C6.97278 6.25563 7.01378 6.27363 7.04778 6.30963C7.08178 6.34363 7.09878 6.38463 7.09878 6.43263C7.09878 6.47863 7.08178 6.51963 7.04778 6.55563C7.01578 6.58963 6.97478 6.60663 6.92478 6.60663ZM8.45115 6.60663C8.40315 6.60663 8.36215 6.58963 8.32815 6.55563C8.29415 6.52163 8.27715 6.48063 8.27715 6.43263C8.27715 6.38263 8.29415 6.34063 8.32815 6.30663C8.36415 6.27263 8.40515 6.25563 8.45115 6.25563C8.49915 6.25563 8.54015 6.27363 8.57415 6.30963C8.60815 6.34363 8.62515 6.38463 8.62515 6.43263C8.62515 6.47863 8.60815 6.51963 8.57415 6.55563C8.54215 6.58963 8.50115 6.60663 8.45115 6.60663ZM9.88452 6.79263C9.84252 6.79263 9.80952 6.77563 9.78552 6.74163C9.76352 6.70963 9.76152 6.67163 9.77952 6.62763L10.7215 4.27863C10.7295 4.25663 10.7435 4.23963 10.7635 4.22763C10.7835 4.21563 10.8055 4.20963 10.8295 4.20963C10.8735 4.20963 10.9055 4.22763 10.9255 4.26363C10.9455 4.29763 10.9485 4.33463 10.9345 4.37463L9.99252 6.72663C9.98252 6.75063 9.96752 6.76763 9.94752 6.77763C9.92752 6.78763 9.90652 6.79263 9.88452 6.79263ZM12.2627 6.60663C12.2147 6.60663 12.1737 6.58963 12.1397 6.55563C12.1057 6.52163 12.0887 6.48063 12.0887 6.43263C12.0887 6.38263 12.1057 6.34063 12.1397 6.30663C12.1757 6.27263 12.2167 6.25563 12.2627 6.25563C12.3107 6.25563 12.3517 6.27363 12.3857 6.30963C12.4197 6.34363 12.4367 6.38463 12.4367 6.43263C12.4367 6.47863 12.4197 6.51963 12.3857 6.55563C12.3537 6.58963 12.3127 6.60663 12.2627 6.60663ZM13.789 6.60663C13.741 6.60663 13.7 6.58963 13.666 6.55563C13.632 6.52163 13.615 6.48063 13.615 6.43263C13.615 6.38263 13.632 6.34063 13.666 6.30663C13.702 6.27263 13.743 6.25563 13.789 6.25563C13.837 6.25563 13.878 6.27363 13.912 6.30963C13.946 6.34363 13.963 6.38463 13.963 6.43263C13.963 6.47863 13.946 6.51963 13.912 6.55563C13.88 6.58963 13.839 6.60663 13.789 6.60663ZM14.4365 6.60663C14.3885 6.60663 14.3475 6.58963 14.3135 6.55563C14.2795 6.52163 14.2625 6.48063 14.2625 6.43263C14.2625 6.38263 14.2795 6.34063 14.3135 6.30663C14.3495 6.27263 14.3905 6.25563 14.4365 6.25563C14.4845 6.25563 14.5255 6.27363 14.5595 6.30963C14.5935 6.34363 14.6105 6.38463 14.6105 6.43263C14.6105 6.47863 14.5935 6.51963 14.5595 6.55563C14.5275 6.58963 14.4865 6.60663 14.4365 6.60663ZM15.084 6.60663C15.036 6.60663 14.995 6.58963 14.961 6.55563C14.927 6.52163 14.91 6.48063 14.91 6.43263C14.91 6.38263 14.927 6.34063 14.961 6.30663C14.997 6.27263 15.038 6.25563 15.084 6.25563C15.132 6.25563 15.173 6.27363 15.207 6.30963C15.241 6.34363 15.258 6.38463 15.258 6.43263C15.258 6.47863 15.241 6.51963 15.207 6.55563C15.175 6.58963 15.134 6.60663 15.084 6.60663ZM16.5173 6.79263C16.4753 6.79263 16.4423 6.77563 16.4183 6.74163C16.3963 6.70963 16.3943 6.67163 16.4123 6.62763L17.3543 4.27863C17.3623 4.25663 17.3763 4.23963 17.3963 4.22763C17.4163 4.21563 17.4383 4.20963 17.4623 4.20963C17.5063 4.20963 17.5383 4.22763 17.5583 4.26363C17.5783 4.29763 17.5813 4.33463 17.5673 4.37463L16.6253 6.72663C16.6153 6.75063 16.6003 6.76763 16.5803 6.77763C16.5603 6.78763 16.5393 6.79263 16.5173 6.79263ZM3.45413 9.12631C3.47613 9.14831 3.50313 9.15931 3.53513 9.15931H4.24013C4.27413 9.15931 4.30213 9.14831 4.32413 9.12631C4.34613 9.10431 4.35713 9.07731 4.35713 9.04531C4.35713 9.01131 4.34613 8.98331 4.32413 8.96131C4.30213 8.93931 4.27413 8.92831 4.24013 8.92831H3.53513C3.50313 8.92831 3.47613 8.93931 3.45413 8.96131C3.43213 8.98331 3.42113 9.01131 3.42113 9.04531C3.42113 9.07731 3.43213 9.10431 3.45413 9.12631ZM4.626 9.12631C4.648 9.14831 4.675 9.15931 4.707 9.15931H5.412C5.446 9.15931 5.474 9.14831 5.496 9.12631C5.518 9.10431 5.529 9.07731 5.529 9.04531C5.529 9.01131 5.518 8.98331 5.496 8.96131C5.474 8.93931 5.446 8.92831 5.412 8.92831H4.707C4.675 8.92831 4.648 8.93931 4.626 8.96131C4.604 8.98331 4.593 9.01131 4.593 9.04531C4.593 9.07731 4.604 9.10431 4.626 9.12631ZM5.85188 9.86131C5.88588 9.89531 5.92688 9.91231 5.97488 9.91231C6.02488 9.91231 6.06588 9.89531 6.09788 9.86131C6.13188 9.82531 6.14888 9.78431 6.14888 9.73831C6.14888 9.69031 6.13188 9.64931 6.09788 9.61531C6.06388 9.57931 6.02288 9.56131 5.97488 9.56131C5.92888 9.56131 5.88788 9.57831 5.85188 9.61231C5.81788 9.64631 5.80088 9.68831 5.80088 9.73831C5.80088 9.78631 5.81788 9.82731 5.85188 9.86131ZM7.37824 9.86131C7.41224 9.89531 7.45324 9.91231 7.50124 9.91231C7.55124 9.91231 7.59224 9.89531 7.62424 9.86131C7.65824 9.82531 7.67524 9.78431 7.67524 9.73831C7.67524 9.69031 7.65824 9.64931 7.62424 9.61531C7.59024 9.57931 7.54924 9.56131 7.50124 9.56131C7.45524 9.56131 7.41424 9.57831 7.37824 9.61231C7.34424 9.64631 7.32724 9.68831 7.32724 9.73831C7.32724 9.78631 7.34424 9.82731 7.37824 9.86131ZM7.9717 9.12631C7.99371 9.14831 8.02071 9.15931 8.05271 9.15931H8.7577C8.7917 9.15931 8.8197 9.14831 8.84171 9.12631C8.86371 9.10431 8.87471 9.07731 8.87471 9.04531C8.87471 9.01131 8.86371 8.98331 8.84171 8.96131C8.8197 8.93931 8.7917 8.92831 8.7577 8.92831H8.05271C8.02071 8.92831 7.99371 8.93931 7.9717 8.96131C7.9497 8.98331 7.9387 9.01131 7.9387 9.04531C7.9387 9.07731 7.9497 9.10431 7.9717 9.12631ZM9.19758 9.86131C9.23158 9.89531 9.27258 9.91231 9.32058 9.91231C9.37058 9.91231 9.41158 9.89531 9.44358 9.86131C9.47758 9.82531 9.49458 9.78431 9.49458 9.73831C9.49458 9.69031 9.47758 9.64931 9.44358 9.61531C9.40958 9.57931 9.36858 9.56131 9.32058 9.56131C9.27458 9.56131 9.23358 9.57831 9.19758 9.61231C9.16358 9.64631 9.14658 9.68831 9.14658 9.73831C9.14658 9.78631 9.16358 9.82731 9.19758 9.86131ZM10.7239 9.86131C10.7579 9.89531 10.7989 9.91231 10.8469 9.91231C10.8969 9.91231 10.9379 9.89531 10.9699 9.86131C11.0039 9.82531 11.0209 9.78431 11.0209 9.73831C11.0209 9.69031 11.0039 9.64931 10.9699 9.61531C10.9359 9.57931 10.8949 9.56131 10.8469 9.56131C10.8009 9.56131 10.7599 9.57831 10.7239 9.61231C10.6899 9.64631 10.6729 9.68831 10.6729 9.73831C10.6729 9.78631 10.6899 9.82731 10.7239 9.86131ZM11.3174 9.12631C11.3394 9.14831 11.3664 9.15931 11.3984 9.15931H12.1034C12.1374 9.15931 12.1654 9.14831 12.1874 9.12631C12.2094 9.10431 12.2204 9.07731 12.2204 9.04531C12.2204 9.01131 12.2094 8.98331 12.1874 8.96131C12.1654 8.93931 12.1374 8.92831 12.1034 8.92831H11.3984C11.3664 8.92831 11.3394 8.93931 11.3174 8.96131C11.2954 8.98331 11.2844 9.01131 11.2844 9.04531C11.2844 9.07731 11.2954 9.10431 11.3174 9.12631ZM13.3682 9.12631C13.3902 9.14831 13.4172 9.15931 13.4492 9.15931H14.1542C14.1882 9.15931 14.2162 9.14831 14.2382 9.12631C14.2602 9.10431 14.2712 9.07731 14.2712 9.04531C14.2712 9.01131 14.2602 8.98331 14.2382 8.96131C14.2162 8.93931 14.1882 8.92831 14.1542 8.92831H13.4492C13.4172 8.92831 13.3902 8.93931 13.3682 8.96131C13.3462 8.98331 13.3352 9.01131 13.3352 9.04531C13.3352 9.07731 13.3462 9.10431 13.3682 9.12631ZM14.5941 9.86131C14.6281 9.89531 14.6691 9.91231 14.7171 9.91231C14.7671 9.91231 14.8081 9.89531 14.8401 9.86131C14.8741 9.82531 14.8911 9.78431 14.8911 9.73831C14.8911 9.69031 14.8741 9.64931 14.8401 9.61531C14.8061 9.57931 14.7651 9.56131 14.7171 9.56131C14.6711 9.56131 14.6301 9.57831 14.5941 9.61231C14.5601 9.64631 14.5431 9.68831 14.5431 9.73831C14.5431 9.78631 14.5601 9.82731 14.5941 9.86131ZM3.45413 12.1263C3.47613 12.1483 3.50313 12.1593 3.53513 12.1593H4.24013C4.27413 12.1593 4.30213 12.1483 4.32413 12.1263C4.34613 12.1043 4.35713 12.0773 4.35713 12.0453C4.35713 12.0113 4.34613 11.9833 4.32413 11.9613C4.30213 11.9393 4.27413 11.9283 4.24013 11.9283H3.53513C3.50313 11.9283 3.47613 11.9393 3.45413 11.9613C3.43213 11.9833 3.42113 12.0113 3.42113 12.0453C3.42113 12.0773 3.43213 12.1043 3.45413 12.1263ZM4.68 12.8613C4.714 12.8953 4.755 12.9123 4.803 12.9123C4.853 12.9123 4.894 12.8953 4.926 12.8613C4.96 12.8253 4.977 12.7843 4.977 12.7383C4.977 12.6903 4.96 12.6493 4.926 12.6153C4.892 12.5793 4.851 12.5613 4.803 12.5613C4.757 12.5613 4.716 12.5783 4.68 12.6123C4.646 12.6463 4.629 12.6883 4.629 12.7383C4.629 12.7863 4.646 12.8273 4.68 12.8613ZM5.32746 12.8613C5.36146 12.8953 5.40246 12.9123 5.45046 12.9123C5.50046 12.9123 5.54146 12.8953 5.57346 12.8613C5.60746 12.8253 5.62446 12.7843 5.62446 12.7383C5.62446 12.6903 5.60746 12.6493 5.57346 12.6153C5.53946 12.5793 5.49846 12.5613 5.45046 12.5613C5.40446 12.5613 5.36346 12.5783 5.32746 12.6123C5.29346 12.6463 5.27646 12.6883 5.27646 12.7383C5.27646 12.7863 5.29346 12.8273 5.32746 12.8613ZM6.85383 12.8613C6.88783 12.8953 6.92883 12.9123 6.97683 12.9123C7.02683 12.9123 7.06783 12.8953 7.09983 12.8613C7.13383 12.8253 7.15083 12.7843 7.15083 12.7383C7.15083 12.6903 7.13383 12.6493 7.09983 12.6153C7.06583 12.5793 7.02483 12.5613 6.97683 12.5613C6.93083 12.5613 6.88983 12.5783 6.85383 12.6123C6.81983 12.6463 6.80283 12.6883 6.80283 12.7383C6.80283 12.7863 6.81983 12.8273 6.85383 12.8613Z" fill="#4F4F4F"/>
</svg>
