<svg width="21" height="20" viewBox="0 0 21 20" fill="none" xmlns="http://www.w3.org/2000/svg">
<path fill-rule="evenodd" clip-rule="evenodd" d="M11.0251 1.19343C10.6638 0.431148 9.5791 0.431148 9.21781 1.19343L6.95443 5.96892C6.80866 6.27649 6.51644 6.4888 6.17888 6.53239L0.937691 7.20929C0.101075 7.31734 -0.234115 8.34895 0.379212 8.92812L4.22155 12.5564C4.46902 12.7901 4.58064 13.1336 4.51778 13.4682L3.54194 18.662C3.38617 19.491 4.26371 20.1286 5.00406 19.7243L9.64214 17.1912C9.94086 17.0281 10.3021 17.0281 10.6008 17.1912L15.2389 19.7243C15.9792 20.1286 16.8567 19.491 16.701 18.662L15.7251 13.4682C15.6623 13.1336 15.7739 12.7901 16.0214 12.5564L19.8637 8.92812C20.477 8.34895 20.1418 7.31734 19.3052 7.20929L14.064 6.53239C13.7265 6.4888 13.4343 6.27649 13.2885 5.96892L11.0251 1.19343ZM10.1215 14.1932C11.8058 14.1932 13.1712 12.8278 13.1712 11.1434C13.1712 9.45908 11.8058 8.09365 10.1215 8.09365C8.43712 8.09365 7.07169 9.45908 7.07169 11.1434C7.07169 12.8278 8.43712 14.1932 10.1215 14.1932Z" fill="#4F4F4F"/>
</svg>
