<svg width="22" height="21" viewBox="0 0 22 21" fill="none" xmlns="http://www.w3.org/2000/svg">
<path d="M0.929369 5.11295C0.929369 5.0427 0.999894 4.99435 1.06542 5.01967L10.4997 8.66582C10.5383 8.68072 10.5637 8.71778 10.5637 8.7591V20.32C10.5637 20.3902 10.4932 20.4386 10.4276 20.4132L0.99332 16.7671C0.95478 16.7522 0.929369 16.7152 0.929369 16.6738V5.11295Z" fill="#4F4F4F"/>
<path d="M21.198 5.11295C21.198 5.0427 21.1275 4.99435 21.062 5.01967L11.6276 8.66582C11.5891 8.68072 11.5637 8.71778 11.5637 8.7591V20.32C11.5637 20.3902 11.6342 20.4386 11.6997 20.4132L21.1341 16.7671C21.1726 16.7522 21.198 16.7152 21.198 16.6738V5.11295Z" fill="#4F4F4F"/>
<path d="M10.8325 0.491489C10.8106 0.48355 10.7866 0.483514 10.7647 0.491385L1.32509 3.87881C1.23777 3.91014 1.23648 4.03316 1.32312 4.06633L10.7627 7.67958C10.7858 7.68843 10.8114 7.68839 10.8345 7.67946L20.1838 4.06621C20.27 4.03288 20.2687 3.91041 20.1818 3.87891L10.8325 0.491489Z" fill="#4F4F4F"/>
</svg>
