<svg width="31" height="31" viewBox="0 0 31 31" fill="none" xmlns="http://www.w3.org/2000/svg">
<path d="M23.7219 19.2609C23.5559 19.2241 23.4311 19.1401 23.3475 19.0089C23.2639 18.8777 23.2416 18.7243 23.2806 18.5485C23.3672 18.158 23.553 17.7588 23.838 17.3508C24.1329 16.945 24.4868 16.6189 24.9 16.3724C25.2654 16.1564 25.614 15.9469 25.9458 15.7439C26.2776 15.5409 26.5622 15.2967 26.7996 15.0113C27.0467 14.7281 27.2244 14.3424 27.3327 13.8543C27.4171 13.4735 27.4012 13.1064 27.2849 12.7528C27.1708 12.3895 26.9635 12.0773 26.6629 11.816C26.3721 11.5569 26.0022 11.3776 25.5531 11.278C25.0649 11.1698 24.6224 11.1793 24.2255 11.3064C23.8307 11.4237 23.4967 11.6365 23.2236 11.9447C22.9602 12.255 22.7776 12.6396 22.6759 13.0985C22.6391 13.2644 22.5551 13.3892 22.4239 13.4728C22.3046 13.5488 22.162 13.5684 21.996 13.5316C21.83 13.4948 21.7042 13.4157 21.6184 13.2942C21.5348 13.163 21.5114 13.0144 21.5482 12.8485C21.6976 12.1748 21.975 11.6166 22.3804 11.1739C22.788 10.7214 23.283 10.406 23.8654 10.2279C24.4575 10.0519 25.1001 10.0407 25.7933 10.1944C26.4377 10.3372 26.9823 10.6065 27.4272 11.0021C27.8743 11.3881 28.1902 11.8576 28.3748 12.4106C28.5617 12.9539 28.5858 13.538 28.4473 14.1629C28.3261 14.7096 28.1256 15.1517 27.846 15.4891C27.5663 15.8266 27.2297 16.1207 26.8361 16.3715C26.4544 16.6146 26.0342 16.8697 25.5755 17.1368C25.2123 17.3431 24.944 17.6062 24.7706 17.9263C24.5972 18.2463 24.4813 18.5382 24.4228 18.8018C24.3839 18.9775 24.2988 19.1072 24.1676 19.1907C24.0364 19.2743 23.8878 19.2977 23.7219 19.2609ZM23.1472 21.853C22.9031 21.7989 22.7165 21.6704 22.5873 21.4677C22.4679 21.2671 22.4342 21.0496 22.4861 20.8153C22.5402 20.5712 22.6687 20.3846 22.8714 20.2554C23.0742 20.1263 23.2927 20.0876 23.5271 20.1396C23.7614 20.1915 23.9431 20.3189 24.0723 20.5217C24.2112 20.7266 24.2536 20.9511 24.1995 21.1952C24.1476 21.4295 24.0153 21.6101 23.8028 21.7371C23.6001 21.8663 23.3815 21.9049 23.1472 21.853Z" fill="#4F4F4F"/>
<path d="M10.5801 22.8013C10.4558 22.9172 10.3159 22.9725 10.1604 22.9671C10.005 22.9616 9.86585 22.8931 9.74309 22.7614C9.47029 22.4689 9.24651 22.0896 9.07175 21.6236C8.9043 21.1508 8.83603 20.6744 8.86695 20.1943C8.89589 19.7708 8.92068 19.3648 8.94131 18.9764C8.96195 18.588 8.92191 18.2151 8.82118 17.8579C8.72776 17.4937 8.51056 17.1289 8.16956 16.7632C7.90358 16.4779 7.59199 16.2831 7.23479 16.1787C6.87078 16.0669 6.49599 16.0609 6.11044 16.1606C5.7322 16.2535 5.37487 16.4569 5.03844 16.7706C4.67277 17.1116 4.4299 17.4816 4.30983 17.8807C4.18294 18.2725 4.16912 18.6683 4.26837 19.0679C4.37493 19.4608 4.58848 19.8291 4.90902 20.1729C5.02496 20.2972 5.08022 20.4371 5.07479 20.5926C5.06985 20.7339 5.00522 20.8625 4.88089 20.9785C4.75656 21.0944 4.62007 21.1533 4.47142 21.1552C4.31595 21.1498 4.18025 21.0849 4.06431 20.9606C3.59373 20.4559 3.29082 19.9112 3.15559 19.3263C3.01354 18.734 3.03402 18.1475 3.21704 17.5666C3.40737 16.9789 3.76217 16.443 4.28143 15.9588C4.76412 15.5087 5.29451 15.2123 5.87259 15.0698C6.44386 14.9199 7.00969 14.9255 7.57009 15.0866C8.12368 15.2404 8.61871 15.5513 9.05519 16.0193C9.43711 16.4289 9.68792 16.8445 9.80763 17.2661C9.92734 17.6878 9.97905 18.1318 9.96276 18.5982C9.94697 19.0505 9.91922 19.5412 9.87951 20.0705C9.84375 20.4867 9.90865 20.8569 10.0742 21.181C10.2398 21.5052 10.4146 21.766 10.5988 21.9635C10.7215 22.0951 10.7802 22.2387 10.7748 22.3942C10.7693 22.5496 10.7045 22.6853 10.5801 22.8013ZM12.3908 24.743C12.208 24.9135 11.9964 24.9946 11.7562 24.9862C11.5232 24.971 11.3249 24.8756 11.1612 24.7001C10.9907 24.5173 10.9097 24.3057 10.9181 24.0654C10.9264 23.8252 11.0184 23.6232 11.1939 23.4595C11.3695 23.2958 11.5774 23.2182 11.8176 23.2266C12.0652 23.2281 12.2742 23.3203 12.4447 23.5032C12.6084 23.6787 12.6824 23.89 12.6667 24.1371C12.6583 24.3774 12.5664 24.5794 12.3908 24.743Z" fill="#4F4F4F"/>
<path d="M15.7947 18.3293C15.525 18.3648 15.2914 18.3068 15.094 18.1553C14.8965 18.0038 14.779 17.7852 14.7414 17.4997C14.6578 16.8652 14.7187 16.1632 14.9241 15.3938C15.1453 14.6224 15.499 13.9383 15.9853 13.3418C16.4165 12.817 16.826 12.3112 17.2138 11.8244C17.6015 11.3376 17.8958 10.8148 18.0966 10.2558C18.3132 9.6947 18.3693 9.01759 18.2649 8.22443C18.1834 7.60577 17.9586 7.06247 17.5903 6.59453C17.22 6.11073 16.7374 5.75467 16.1425 5.52637C15.5635 5.29598 14.9091 5.22881 14.1794 5.32488C13.3863 5.4293 12.7261 5.68567 12.1989 6.09398C11.6696 6.48642 11.2839 6.98906 11.0418 7.6019C10.8156 8.21266 10.7516 8.89082 10.8497 9.63638C10.8852 9.90606 10.8272 10.1396 10.6757 10.3371C10.5379 10.5166 10.3342 10.6241 10.0646 10.6596C9.79488 10.6951 9.56235 10.645 9.36698 10.5094C9.16951 10.3579 9.05302 10.1473 9.01752 9.87759C8.87342 8.78304 8.98502 7.79199 9.35231 6.90446C9.71752 6.00106 10.2892 5.25607 11.0673 4.66949C11.8612 4.08082 12.8213 3.71235 13.9476 3.56407C14.9946 3.42624 15.9608 3.53304 16.8462 3.88447C17.7296 4.22004 18.4614 4.75308 19.0417 5.48358C19.62 6.19822 19.9759 7.06316 20.1096 8.0784C20.2265 8.96673 20.1671 9.74112 19.9313 10.4015C19.6955 11.062 19.3503 11.6884 18.8957 12.2808C18.4549 12.8552 17.9628 13.4687 17.4193 14.1212C16.986 14.6302 16.7266 15.1727 16.6411 15.7487C16.5555 16.3248 16.541 16.827 16.5974 17.2553C16.6349 17.5409 16.578 17.7824 16.4265 17.9799C16.2749 18.1773 16.0643 18.2938 15.7947 18.3293ZM16.3491 22.541C15.9526 22.5932 15.6017 22.5022 15.2965 22.268C15.0072 22.0318 14.8375 21.7233 14.7874 21.3426C14.7352 20.946 14.8261 20.5951 15.0603 20.2899C15.2945 19.9848 15.6019 19.8071 15.9826 19.757C16.3633 19.7069 16.7063 19.7989 17.0115 20.0331C17.3325 20.2651 17.5191 20.5795 17.5713 20.976C17.6215 21.3568 17.5215 21.7008 17.2715 22.008C17.0373 22.3132 16.7299 22.4908 16.3491 22.541Z" fill="#4F4F4F"/>
</svg>
